<?xml version="1.0" encoding="utf-8"?>
<!-- Generator: Adobe Illustrator 16.0.3, SVG Export Plug-In . SVG Version: 6.00 Build 0)  -->
<!DOCTYPE svg PUBLIC "-//W3C//DTD SVG 1.1//EN" "http://www.w3.org/Graphics/SVG/1.1/DTD/svg11.dtd">
<svg version="1.1" id="Layer_1" xmlns="http://www.w3.org/2000/svg" xmlns:xlink="http://www.w3.org/1999/xlink" x="0px" y="0px"
	 width="58.57px" height="14.793px" viewBox="101.623 109.646 58.57 14.793" enable-background="new 101.623 109.646 58.57 14.793"
	 xml:space="preserve">
<g id="IhvPLX_1_">
	<g>
		<g>
			<path fill="none" d="M118.525,109.665c0,4.938,0,9.856,0,14.772c1.184,0,2.328,0,3.516,0c0-2.072,0-4.123,0-6.172
				c0.022-0.002,0.044-0.004,0.067-0.004c0.269,2.061,0.539,4.118,0.808,6.17c0.825,0,1.596,0,2.39,0
				c0.251-2.057,0.499-4.089,0.745-6.121c0.025,0,0.048,0.002,0.072,0.004c0,2.035,0,4.067,0,6.113c1.195,0,2.358,0,3.525,0
				c0-4.932,0-9.833,0-14.754c-1.577,0-3.133,0-4.696,0c-0.281,2.136-0.559,4.245-0.836,6.354c-0.025-0.001-0.049-0.003-0.075-0.005
				c-0.28-2.121-0.56-4.241-0.84-6.359C121.608,109.665,120.069,109.665,118.525,109.665z M117.912,117.033
				c-0.002,0-0.004,0-0.006,0c0-1.633,0.039-3.27-0.011-4.901c-0.044-1.416-0.82-2.338-2.219-2.511
				c-1.106-0.138-2.244-0.11-3.36-0.044c-0.922,0.054-1.727,0.487-2.078,1.397c-0.212,0.548-0.323,1.168-0.329,1.757
				c-0.032,2.875-0.017,5.75-0.013,8.623c0,0.289,0.029,0.58,0.071,0.865c0.208,1.418,1.117,2.266,2.547,2.328
				c0.891,0.038,1.785,0.039,2.676,0.006c1.658-0.06,2.656-1.021,2.71-2.688C117.952,120.257,117.912,118.645,117.912,117.033z
				 M160.193,124.439c-0.025-0.135-0.041-0.246-0.068-0.354c-0.596-2.358-1.193-4.715-1.785-7.075
				c-0.033-0.138-0.031-0.299,0.004-0.438c0.36-1.39,0.732-2.774,1.1-4.163c0.242-0.905,0.479-1.81,0.726-2.744
				c-1.086,0-2.137,0-3.228,0c-0.237,1.158-0.477,2.317-0.717,3.475c-0.026-0.001-0.055-0.001-0.08-0.001
				c-0.189-1.157-0.381-2.313-0.571-3.474c-1.248,0-2.462,0-3.699,0c0.021,0.109,0.03,0.199,0.053,0.287
				c0.546,2.192,1.099,4.381,1.632,6.577c0.084,0.348,0.18,0.746,0.098,1.077c-0.4,1.606-0.858,3.197-1.295,4.795
				c-0.182,0.668-0.357,1.336-0.545,2.033c1.1,0,2.146,0,3.224,0c0.251-1.195,0.497-2.382,0.745-3.566
				c0.023-0.001,0.05-0.004,0.074-0.004c0.213,1.188,0.427,2.379,0.642,3.574C157.736,124.439,158.95,124.439,160.193,124.439z
				 M133.874,124.436c0-1.92,0-3.815,0-5.787c0.579,0,1.122,0.025,1.663-0.004c1.459-0.08,2.426-0.947,2.535-2.41
				c0.094-1.267,0.051-2.546,0.051-3.82c0-0.263-0.053-0.533-0.117-0.79c-0.213-0.857-0.719-1.476-1.57-1.753
				c-0.338-0.111-0.699-0.196-1.051-0.201c-1.635-0.025-3.269-0.019-4.902-0.021c-0.064,0-0.129,0.027-0.191,0.042
				c0,4.92,0,9.82,0,14.744C131.484,124.436,132.66,124.436,133.874,124.436z M151.448,112.667c0-1.045,0-2.037,0-3.047
				c-2.112,0-4.204,0-6.312,0c0,4.935,0,9.854,0,14.78c2.129,0,4.232,0,6.346,0c0-1.02,0-2.019,0-3.053c-0.928,0-1.828,0-2.732,0
				c0-0.979,0-1.921,0-2.908c0.876,0,1.729,0,2.575,0c0-1.043,0-2.043,0-3.071c-0.875,0-1.718,0-2.572,0c0-0.91,0-1.791,0-2.701
				C149.66,112.667,150.538,112.667,151.448,112.667z M144.693,121.386c-0.824,0-1.619,0-2.461,0c0-3.925,0-7.812,0-11.711
				c-1.221,0-2.396,0-3.568,0c0,4.936,0,9.845,0,14.753c2.025,0,4.023,0,6.029,0C144.693,123.414,144.693,122.43,144.693,121.386z"
				/>
			<path d="M101.623,112.656c0.064-0.33,0.119-0.66,0.198-0.985c0.26-1.076,0.914-1.771,2.008-2.025
				c1.064-0.246,2.149-0.246,3.216-0.094c1.163,0.164,1.835,0.958,2.198,2.033c0.369,1.089,0.282,2.217,0.285,3.366
				c-1.18,0-2.333,0-3.529,0c-0.006-0.112-0.017-0.234-0.018-0.355c-0.003-0.581,0.001-1.161-0.004-1.741
				c-0.002-0.226-0.111-0.386-0.349-0.397c-0.252-0.012-0.379,0.142-0.405,0.383c-0.01,0.092-0.005,0.186-0.005,0.277
				c-0.001,2.53-0.001,5.058,0,7.585c0,0.607,0.075,0.684,0.679,0.684c1.056,0.002,2.111,0.002,3.167,0.002c0.125,0,0.25,0,0.41,0
				c0,1.033,0,2.024,0,3.021c-0.012,0.008-0.031,0.033-0.05,0.033c-1.622-0.004-3.247,0.047-4.867-0.027
				c-1.423-0.066-2.388-0.971-2.733-2.361c-0.069-0.279-0.134-0.559-0.201-0.837C101.623,118.363,101.623,115.51,101.623,112.656z"
				/>
			<path d="M118.525,109.665c1.544,0,3.083,0,4.674,0c0.28,2.118,0.56,4.238,0.84,6.359c0.026,0.002,0.05,0.003,0.075,0.005
				c0.278-2.109,0.555-4.218,0.836-6.354c1.563,0,3.119,0,4.696,0c0,4.921,0,9.823,0,14.755c-1.167,0-2.33,0-3.525,0
				c0-2.047,0-4.08,0-6.113c-0.023-0.004-0.047-0.004-0.072-0.006c-0.247,2.033-0.494,4.065-0.745,6.121c-0.794,0-1.565,0-2.39,0
				c-0.269-2.051-0.539-4.108-0.808-6.17c-0.022,0.002-0.044,0.002-0.067,0.004c0,2.051,0,4.101,0,6.172c-1.188,0-2.332,0-3.516,0
				C118.525,119.521,118.525,114.603,118.525,109.665z"/>
			<path d="M117.912,117.033c0,1.611,0.04,3.224-0.012,4.833c-0.054,1.666-1.052,2.628-2.71,2.688
				c-0.891,0.032-1.785,0.031-2.676-0.007c-1.431-0.062-2.339-0.909-2.547-2.327c-0.042-0.285-0.07-0.576-0.071-0.865
				c-0.004-2.875-0.02-5.75,0.013-8.624c0.006-0.589,0.117-1.209,0.329-1.757c0.351-0.91,1.156-1.343,2.078-1.397
				c1.117-0.066,2.254-0.094,3.36,0.044c1.399,0.173,2.175,1.095,2.219,2.511c0.05,1.631,0.011,3.268,0.011,4.901
				C117.908,117.033,117.91,117.033,117.912,117.033z M114.336,117.048c0-1.299,0-2.596-0.001-3.896
				c0-0.103,0.006-0.209-0.012-0.311c-0.043-0.24-0.214-0.402-0.435-0.345c-0.149,0.037-0.271,0.227-0.375,0.372
				c-0.044,0.063-0.012,0.181-0.012,0.272c0,2.598,0,5.194,0,7.79c0,0.104-0.031,0.236,0.02,0.307
				c0.098,0.135,0.24,0.316,0.372,0.324c0.134,0.006,0.307-0.151,0.406-0.283c0.064-0.084,0.035-0.245,0.035-0.371
				C114.336,119.621,114.336,118.334,114.336,117.048z"/>
			<path d="M160.193,124.439c-1.243,0-2.457,0-3.694,0c-0.215-1.195-0.429-2.387-0.642-3.574c-0.024,0-0.051,0.003-0.074,0.004
				c-0.248,1.186-0.494,2.371-0.745,3.566c-1.077,0-2.124,0-3.224,0c0.188-0.697,0.363-1.365,0.545-2.033
				c0.437-1.598,0.895-3.188,1.295-4.795c0.082-0.332-0.014-0.729-0.098-1.076c-0.533-2.195-1.086-4.385-1.632-6.577
				c-0.021-0.088-0.032-0.178-0.053-0.287c1.237,0,2.451,0,3.698,0c0.191,1.161,0.383,2.317,0.572,3.474c0.025,0,0.053,0,0.08,0.001
				c0.24-1.158,0.479-2.317,0.717-3.475c1.09,0,2.142,0,3.228,0c-0.246,0.934-0.483,1.839-0.726,2.744
				c-0.366,1.388-0.738,2.773-1.1,4.163c-0.035,0.138-0.037,0.299-0.004,0.438c0.592,2.36,1.189,4.716,1.785,7.075
				C160.152,124.193,160.168,124.307,160.193,124.439z"/>
			<path d="M133.874,124.436c-1.214,0-2.39,0-3.584,0c0-4.924,0-9.824,0-14.744c0.063-0.015,0.127-0.042,0.19-0.042
				c1.636,0.001,3.27-0.005,4.903,0.021c0.353,0.005,0.714,0.09,1.052,0.201c0.852,0.277,1.356,0.896,1.569,1.753
				c0.063,0.257,0.117,0.526,0.117,0.79c0,1.273,0.043,2.553-0.052,3.82c-0.108,1.462-1.075,2.33-2.534,2.41
				c-0.541,0.029-1.084,0.004-1.663,0.004C133.874,120.619,133.874,122.516,133.874,124.436z M133.877,115.954
				c0.562,0.114,0.73-0.014,0.732-0.549c0.002-0.766,0.002-1.532,0-2.297c0-0.533-0.16-0.662-0.732-0.577
				C133.877,113.671,133.877,114.813,133.877,115.954z"/>
			<path d="M151.448,112.667c-0.91,0-1.788,0-2.696,0c0,0.91,0,1.791,0,2.701c0.854,0,1.697,0,2.572,0c0,1.028,0,2.028,0,3.071
				c-0.848,0-1.699,0-2.575,0c0,0.987,0,1.93,0,2.908c0.905,0,1.806,0,2.733,0c0,1.034,0,2.033,0,3.053c-2.113,0-4.217,0-6.348,0
				c0-4.928,0-9.846,0-14.78c2.108,0,4.2,0,6.312,0C151.448,110.63,151.448,111.623,151.448,112.667z"/>
			<path d="M144.693,121.386c0,1.044,0,2.028,0,3.042c-2.006,0-4.004,0-6.029,0c0-4.908,0-9.817,0-14.753c1.174,0,2.348,0,3.568,0
				c0,3.899,0,7.787,0,11.711C143.074,121.386,143.869,121.386,144.693,121.386z"/>
			<path fill="none" d="M114.336,117.048c0,1.286,0,2.573-0.001,3.859c0,0.126,0.029,0.288-0.035,0.372
				c-0.1,0.131-0.272,0.289-0.406,0.283c-0.132-0.008-0.274-0.19-0.372-0.324c-0.051-0.07-0.02-0.202-0.02-0.307
				c0-2.597,0-5.192,0-7.791c0-0.092-0.032-0.209,0.012-0.272c0.103-0.145,0.225-0.335,0.375-0.372
				c0.221-0.058,0.392,0.104,0.435,0.345c0.019,0.102,0.012,0.208,0.012,0.311C114.336,114.452,114.336,115.75,114.336,117.048z"/>
			<path fill="none" d="M133.877,115.954c0-1.141,0-2.282,0-3.422c0.572-0.085,0.732,0.043,0.732,0.577
				c0.002,0.765,0.002,1.531,0,2.297C134.607,115.939,134.439,116.067,133.877,115.954z"/>
		</g>
	</g>
</g>
</svg>
